<?xml version="1.0" encoding="UTF-8"?>
<svg width="1em" height="1em" viewBox="0 0 20 23" version="1.1" xmlns="http://www.w3.org/2000/svg" xmlns:xlink="http://www.w3.org/1999/xlink">
    <g id="" stroke="none" stroke-width="1" fill="none" fill-rule="evenodd">
        <g id="" transform="translate(-80.000000, -75.000000)" fill="currentColor">
            <path d="M88.6724139,76.4971143 C89.4298287,75.824891 90.5701713,75.824891 91.3275861,76.4971143 L91.3275861,76.4971143 L99.3275861,83.5973002 C99.7552506,83.9768623 100,84.5213248 100,85.0931327 L100,85.0931327 L100,96 C100,97.1045695 99.1045695,98 98,98 L98,98 L82,98 C80.8954305,98 80,97.1045695 80,96 L80,96 L80,85.0931327 C80,84.5213248 80.2447494,83.9768623 80.6724139,83.5973002 L80.6724139,83.5973002 Z M94.5207946,91.0970415 L85.4792054,91.0970415 C84.6622628,91.0970415 84,91.7593043 84,92.5762469 C84,93.3931895 84.6622628,94.0554523 85.4792054,94.0554523 L85.4792054,94.0554523 L94.5207946,94.0554523 C95.3377372,94.0554523 96,93.3931895 96,92.5762469 C96,91.7593043 95.3377372,91.0970415 94.5207946,91.0970415 L94.5207946,91.0970415 Z" id=""></path>
        </g>
    </g>
</svg>