<?xml version="1.0" encoding="UTF-8"?>
<svg width="18px" height="22px" viewBox="0 0 18 22" version="1.1" xmlns="http://www.w3.org/2000/svg" xmlns:xlink="http://www.w3.org/1999/xlink">
    <title>修改密码_icon</title>
    <g id="设计规范" stroke="none" stroke-width="1" fill="none" fill-rule="evenodd">
        <g transform="translate(-171.000000, -451.000000)" fill="#2B3B45" fill-rule="nonzero" id="修改密码_icon">
            <path d="M180,451 C182.963479,451 185.379539,453.34378 185.495633,456.278793 L185.5,456.5 L185.5,458.5 L187,458.5 C188.104569,458.5 189,459.395431 189,460.5 L189,470.5 C189,471.604569 188.104569,472.5 187,472.5 L173,472.5 C171.895431,472.5 171,471.604569 171,470.5 L171,460.5 C171,459.395431 171.895431,458.5 173,458.5 L174.5,458.5 L174.5,456.5 C174.5,453.462434 176.962434,451 180,451 Z M180,462.5 C179.487164,462.5 179.064493,462.88604 179.006728,463.383379 L179,463.5 L179,467.5 C179,468.052285 179.447715,468.5 180,468.5 C180.512836,468.5 180.935507,468.11396 180.993272,467.616621 L181,467.5 L181,463.5 C181,462.947715 180.552285,462.5 180,462.5 Z M180,454 C178.674517,454 177.589961,455.031536 177.505318,456.335624 L177.5,456.5 L177.5,458.5 L182.5,458.5 L182.5,456.5 C182.5,455.119288 181.380712,454 180,454 Z"></path>
        </g>
    </g>
</svg>