<?xml version="1.0" encoding="UTF-8"?>
<svg width="19px" height="20px" viewBox="0 0 19 20" version="1.1" xmlns="http://www.w3.org/2000/svg" xmlns:xlink="http://www.w3.org/1999/xlink">
    <title>退出登录_icon</title>
    <g id="设计规范" stroke="none" stroke-width="1" fill="none" fill-rule="evenodd">
        <g transform="translate(-170.000000, -512.000000)" fill="#2B3B45" fill-rule="nonzero" id="退出登录_icon">
            <g transform="translate(170.000000, 512.000000)">
                <path d="M15.8719559,2.95376944 C17.8490627,4.74261421 19,7.28043161 19,10 C19,15.2467051 14.7467051,19.5 9.5,19.5 C4.25329488,19.5 0,15.2467051 0,10 C0,7.28689724 1.14544765,4.75453048 3.11438711,2.96615002 C3.72761601,2.40915647 4.67626874,2.45474423 5.23326229,3.06797313 C5.79025585,3.68120203 5.74466809,4.62985477 5.13143919,5.18684832 C3.7821163,6.41243332 3,8.14154362 3,10 C3,13.5898509 5.91014913,16.5 9.5,16.5 C13.0898509,16.5 16,13.5898509 16,10 C16,8.13712479 15.2141251,6.40427019 13.859195,5.17835783 C13.2448918,4.62254924 13.1974726,3.67398629 13.7532812,3.05968317 C14.3090898,2.44538005 15.2576528,2.39796086 15.8719559,2.95376944 Z M9.5,0 C10.3284271,-1.52179594e-16 11,0.671572875 11,1.5 L11,6.5 C11,7.32842712 10.3284271,8 9.5,8 C8.67157288,8 8,7.32842712 8,6.5 L8,1.5 C8,0.671572875 8.67157288,1.52179594e-16 9.5,0 Z" id="形状结合"></path>
            </g>
        </g>
    </g>
</svg>