<?xml version="1.0" encoding="UTF-8"?>
<svg width="1em" height="1em" viewBox="0 0 20 21" version="1.1" xmlns="http://www.w3.org/2000/svg" xmlns:xlink="http://www.w3.org/1999/xlink">
    <g id="" stroke="none" stroke-width="1" fill="none" fill-rule="evenodd">
        <g id="" transform="translate(-80.000000, -142.000000)" fill="currentColor">
            <path d="M95.5,160 C96.3284271,160 97,160.671573 97,161.5 C97,162.328427 96.3284271,163 95.5,163 L84.5,163 C83.6715729,163 83,162.328427 83,161.5 C83,160.671573 83.6715729,160 84.5,160 L95.5,160 Z M98,142 C99.1045695,142 100,142.895431 100,144 L100,156 C100,157.104569 99.1045695,158 98,158 L82,158 C80.8954305,158 80,157.104569 80,156 L80,144 C80,142.895431 80.8954305,142 82,142 L98,142 Z" id=""></path>
        </g>
    </g>
</svg>